<svg viewBox="0 0 60 60" xml:space="preserve" xmlns="http://www.w3.org/2000/svg" enable-background="new 0 0 60 60"><path d="M42.56 31.97c-.12.05-.23.12-.32.21-.19.19-.29.45-.29.71 0 .13.02.26.07.38.05.13.13.23.22.33a1.046 1.046 0 0 0 .71.29c.26 0 .52-.11.7-.29.1-.1.17-.2.22-.33.05-.12.08-.25.08-.38 0-.26-.11-.52-.3-.71-.27-.27-.72-.37-1.09-.21zM34.14 32.18c-.19.19-.29.45-.29.71 0 .26.1.52.29.71.19.18.44.29.71.29a1.009 1.009 0 0 0 1-1c0-.26-.11-.52-.3-.71-.37-.37-1.04-.37-1.41 0zM20 32.91c.06 0 .13-.01.19-.02s.13-.03.19-.06c.06-.02.12-.06.17-.09.06-.04.11-.08.15-.12a.986.986 0 0 0 .29-.71c0-.27-.1-.52-.29-.71a.443.443 0 0 0-.15-.12.95.95 0 0 0-.17-.1c-.06-.02-.13-.04-.19-.05-.19-.04-.39-.02-.58.05-.12.06-.23.13-.32.22a.99.99 0 0 0-.29.71c0 .26.1.52.29.71.18.18.44.29.71.29zM12.21 31.2a.99.99 0 0 0-.29.71c0 .26.1.52.29.7a.976.976 0 0 0 1.41 0c.05-.04.09-.09.13-.15.03-.05.07-.11.09-.17.03-.06.04-.12.06-.19.01-.06.02-.13.02-.19a1 1 0 0 0-.3-.71c-.36-.37-1.04-.37-1.41 0z" fill="#e6e6e6" class="fill-000000"></path><path d="M53.24 32.58c.01-.08.04-.22.08-.41.38-1.82 1.53-7.36-1.23-11.24-1.42-1.99-3.62-3.22-6.56-3.66-.96-.88-4.45-3.71-9-3.19-3.4.38-6.53 2.54-9.31 6.41-.19-.39-.42-.76-.69-1.09-1.36-1.63-3.31-1.99-4.17-2.08-.9-.8-3.73-3.06-7.38-3.06h-.01c-2.58 0-4.99 1.12-7.16 3.33-2.76 2.81-3.55 7.9-2.02 12.96.13.42.52.71.96.71h.04c.46-.02.84-.35.94-.79.05-.22 1.19-5.27 7.64-4.89 3.43.19 5.15-1.16 5.86-2.41 1.26.61 3.57 2.31 3.99 6.64-1.51 9.71-5.4 14.18-8.74 14.18-3.21 0-6.64-4.54-7.98-10.56a.996.996 0 0 0-1.19-.76c-.54.12-.88.65-.76 1.19C8.12 41 12.2 45.98 16.46 45.98c2.48 0 5.31-1.63 7.53-5.6 2.45 1.05 5.95 2.33 8.5 2.33.29 0 .58-.02.84-.05 1.56 2.06 3.51 3.32 5.57 3.32 2.11 0 4.11-1.34 5.69-3.52.84.13 2.41.33 4.18.33 1.94 0 4.09-.24 5.7-1.1.35-.19.56-.56.53-.96a.992.992 0 0 0-.67-.87c-.03-.01-2.61-1.09-1.11-7.15 0-.02.01-.09.02-.13zM20.83 20.91c-.27-.06-.55.01-.78.16-.23.15-.38.41-.43.68-.01.08-.39 2.05-4.16 1.84-4.58-.25-7.06 1.76-8.37 3.61-.48-3.9.73-6.77 2.13-8.2 1.77-1.81 3.7-2.73 5.72-2.73h.02c3.49 0 6.22 2.71 6.25 2.73.19.19.44.34.72.3.03 0 1.92.03 3.05 1.38.79.95 1.06 2.36.82 4.2-1.86-3.25-4.8-3.94-4.97-3.97zM38.9 43.99c-3 0-6.61-4.8-6.99-11.68-.05-.81.19-1.57.64-2.08 1.01-1.13 2.73-1.59 4.54-2.08 2.12-.57 4.48-1.2 5.81-3.14 1.96 1.25 3.02 3.4 3.02 6.14 0 7.23-3.78 12.84-7.02 12.84zm6.83-3.39c1.35-2.61 2.19-5.93 2.19-9.45 0-3.87-1.82-6.94-5-8.41a1.006 1.006 0 0 0-1.34.53c-.76 1.81-2.73 2.34-5.01 2.95-2.01.54-4.1 1.1-5.51 2.67-.82.91-1.23 2.16-1.15 3.52.17 3.12.99 6 2.19 8.29-1.9-.12-4.77-1.08-7.23-2.12 1.35-3.09 2.38-7.26 2.78-12.74.18-.99.25-1.9.2-2.74 2.69-4.29 5.67-6.67 8.86-7.04 4.28-.49 7.6 2.82 7.63 2.85.16.16.36.26.59.29 2.53.32 4.38 1.29 5.52 2.88 2.26 3.17 1.24 8.06.9 9.67-.05.23-.08.41-.1.54-1.1 4.48-.22 6.91.77 8.18-2.09.51-4.71.33-6.29.13z" fill="#e6e6e6" class="fill-000000"></path><path d="M40.39 38.23a2.8 2.8 0 0 1-2.95 0c-.47-.29-1.09-.14-1.38.33-.29.47-.14 1.09.33 1.38.78.48 1.65.71 2.52.71.87 0 1.74-.24 2.52-.71.47-.29.62-.9.33-1.38-.29-.47-.9-.61-1.37-.33zM18.02 37.92c-1.1.68-2.48.68-3.58 0-.47-.29-1.09-.14-1.38.33-.29.47-.14 1.09.33 1.38.88.54 1.86.8 2.84.8.98 0 1.96-.27 2.84-.8a1.004 1.004 0 0 0-1.05-1.71z" fill="#e6e6e6" class="fill-000000"></path></svg>