<?xml version="1.0" encoding="utf-8"?>
<svg width="456" height="456" viewBox="0 0 456 456" version="1.1" xmlns="http://www.w3.org/2000/svg" style="fill-rule:evenodd;clip-rule:evenodd;stroke-linejoin:round;stroke-miterlimit:2;">
  <path fill="#fff" stroke="transparent" d="M 18.756 66.751 L 446.347 66.751 L 446.347 373.457 L 18.756 373.457 L 18.756 66.751 Z" style=""/>
  <g data-padding="20" transform="matrix(0.213796, 0, 0, 0.204471, 18.756584, 66.750237)" style="">
    <g transform="translate(-1661.29 -1256.012)scale(2.59182)">
      <rect width="441.385" height="217.508" x="627.947" y="651.26" fill="#ffe8f0" rx="0" ry="0" transform="matrix(.88 0 0 .88 205.97 105.81)"/>
      <path fill="#001f3f" d="M1201.007 669.21q-1.133 0-2.276.033v-.033H764.954c-9.457 0-17.116 7.66-17.116 17.116V861.63c0 9.457 7.659 17.116 17.116 17.116h433.777v-.034q1.143.034 2.276.034c57.864 0 104.761-46.909 104.761-104.773s-46.897-104.762-104.761-104.762m-58.264 170.152c0 15.835-12.836 28.671-28.672 28.671H770.904a11.544 11.544 0 0 1-11.566-11.555v-165c0-6.384 5.172-11.556 11.566-11.556h343.156c15.841 0 28.683 12.841 28.683 28.682Z"/>
      <rect width="328.661" height="127.69" x="582.473" y="604.967" fill="none" rx="0" ry="0" transform="translate(215.6 105.96)"/>
      <path fill="#001f3f" d="m892.033 732.702-9.83.9v74.36l9.83.9v.91h-27.79v-.91l9.26-.9v-68.82h-.45l-27.23 72.43h-1.13l-30.4-72.54h-.45v63.84q0 2.71.68 3.79.67 1.07 2.71 1.3l8.02.9v.91h-24.75v-.91l8.14-.9q2.03-.23 2.71-1.3.68-1.08.68-3.79v-67.8q-.79-1.35-1.98-1.86-1.18-.51-3.44-.51h-5.2v-.9h19.32l27.8 66.33h.45l24.86-66.33h18.19Zm26.78 28.02q6.56 0 11.64 3.17 5.09 3.16 7.91 8.87 2.83 5.7 2.83 13.05 0 7.34-2.83 13.05-2.82 5.71-7.91 8.87-5.08 3.17-11.64 3.17-6.55 0-11.63-3.17-5.09-3.16-7.91-8.87-2.83-5.71-2.83-13.05 0-7.35 2.83-13.05 2.82-5.71 7.91-8.87 5.08-3.17 11.63-3.17m-14.01 25.09q0 11.3 3.73 17.63t10.28 6.33q6.56 0 10.29-6.33t3.73-17.63-3.73-17.63-10.29-6.33q-6.55 0-10.28 6.33t-3.73 17.63m65.21 24.29 14.13-41.35q.9-2.83 3.16-4.13t7.46-1.86v-.91h-20.23v.91q4.52.68 6.22 1.52 1.69.85 1.69 2.66 0 1.24-.67 3.5l-10.17 30.51h-.46l-11.75-33.33q-.79-2.26-.79-2.94 0-.91 1.19-1.3 1.18-.4 5.25-.62v-.91h-21.81v.91q3.84.22 5.37 1.18t2.54 3.56l16.61 42.6Zm30.73-65.65q0-2.37 1.52-3.9 1.53-1.52 3.9-1.52 2.38 0 3.9 1.52 1.53 1.53 1.53 3.9t-1.53 3.9q-1.52 1.53-3.9 1.53-2.37 0-3.9-1.53-1.52-1.53-1.52-3.9m9.72 63.51v-47.24h-.91l-13.1 4.41v.79l6.66 2.49v39.55l-6.89.9v.91h21.13v-.91Zm50.62-9.72 1.02-1.36.45.23-.45 1.24q-2.26 5.99-6.73 9.27-4.46 3.28-10.67 3.28-6.11 0-10.85-3.17-4.75-3.16-7.4-8.81-2.66-5.65-2.66-13 0-7.34 2.83-13.11 2.82-5.76 8.02-8.92 5.2-3.17 11.86-3.17 7.91 0 12.15 4.69t4.35 13.62l-.68.56h-30.51q-.22 2.94-.22 4.64 0 10.28 4.18 15.65t11.64 5.37q3.84 0 7.4-1.76 3.56-1.75 6.27-5.25m-15.82-36.27q-5.31 0-8.81 4.4-3.51 4.41-4.52 11.98l21.92-.79q.34-1.36.34-4.52 0-6.1-2.32-8.59-2.31-2.48-6.61-2.48m28.25-.12-1.02 16.5 1.7.11q1.13-5.76 3.84-13.22l.68-1.8h19.89l-28.03 43.84v2.49h34.69l.68-17.41-1.58-.11q-1.92 7.35-4.29 13.79l-.79 2.03h-21.02l28.25-43.73v-2.49Z"/>
      <path fill="#ff8532" d="M1264.273 744.552v6.64h-6.659v-6.64Zm0 13.28v6.65h-6.659v-6.65Zm0 13.29v6.64h-6.659v-6.64Zm0 13.28v6.65h-6.659v-6.659Zm0 13.29v6.64h-6.659v-6.64Zm-13.29-53.14v59.78h-53.14v-59.78Zm-59.78 0v6.64h-6.65v-6.64Zm0 13.28v6.65h-6.65v-6.65Zm0 13.29v6.64h-6.65v-6.64Zm0 13.28v6.65h-6.65v-6.659Zm0 13.29v6.64h-6.65v-6.64Zm76.39-59.79h-86.36c-3.32 0-3.32 0-3.32 3.34v66.43c0 3.32 0 3.32 3.32 3.32h86.36c3.32 0 3.32 0 3.32-3.33v-66.42c0-3.33 0-3.33-3.32-3.33"/>
    </g>
    <path fill="transparent" stroke="transparent" stroke-width="2.688" d="M250 467.742h1500v564.516H250z"/>
  </g>
</svg>